<?xml version="1.0" standalone="no"?>
<!DOCTYPE svg PUBLIC "-//W3C//DTD SVG 20010904//EN"
 "http://www.w3.org/TR/2001/REC-SVG-20010904/DTD/svg10.dtd">
<svg version="1.0" xmlns="http://www.w3.org/2000/svg"
 width="1584.000000pt" height="396.000000pt" viewBox="0 0 1584.000000 396.000000"
 preserveAspectRatio="xMidYMid meet">

<g transform="translate(0.000000,396.000000) scale(0.100000,-0.100000)"
fill="#000000" stroke="none">
<path d="M1265 3160 c-103 -15 -193 -39 -283 -76 -314 -130 -510 -414 -563
-818 -15 -118 -7 -453 15 -568 50 -267 171 -495 328 -613 72 -55 197 -117 284
-141 34 -9 116 -18 194 -21 237 -9 374 33 495 151 34 33 74 85 89 114 18 36
32 52 46 52 19 0 20 -7 20 -145 l0 -145 205 0 205 0 0 605 0 605 -475 0 -475
0 2 -177 3 -178 259 -3 259 -2 -6 -108 c-11 -206 -78 -311 -238 -374 -68 -26
-274 -37 -362 -18 -141 29 -265 125 -326 253 -117 246 -117 725 0 965 40 82
123 171 196 209 95 51 165 67 288 67 242 0 394 -75 482 -236 21 -38 31 -48 46
-44 31 8 327 188 327 198 0 28 -72 141 -129 200 -111 118 -246 189 -436 230
-103 21 -355 32 -450 18z"/>
<path d="M6030 2045 l0 -1095 220 0 220 0 0 445 0 445 430 0 430 0 0 180 0
180 -430 0 -430 0 0 285 0 285 475 0 475 0 0 185 0 185 -695 0 -695 0 0 -1095z"/>
<path d="M13051 2058 c-206 -596 -376 -1089 -379 -1096 -3 -10 42 -12 219 -10
l222 3 82 245 82 245 420 3 421 2 81 -250 82 -250 228 0 228 0 -377 1093 -378
1092 -279 3 -278 2 -374 -1082z m802 199 c76 -232 137 -425 137 -429 0 -5
-133 -8 -296 -8 -277 0 -296 1 -292 18 3 9 65 203 139 430 117 362 136 412
154 412 18 0 37 -51 158 -423z"/>
<path d="M14890 2045 l0 -1095 215 0 215 0 0 1095 0 1095 -215 0 -215 0 0
-1095z"/>
<path d="M3105 2610 c-341 -77 -547 -313 -594 -679 -48 -373 70 -711 303 -871
140 -95 262 -131 476 -137 273 -9 415 34 569 173 45 40 131 155 146 196 4 10
-32 39 -130 101 -75 48 -144 87 -154 87 -12 0 -29 -17 -45 -44 -34 -59 -97
-111 -165 -138 -82 -32 -272 -32 -351 0 -134 53 -201 153 -234 350 l-5 32 532
0 c412 0 537 3 549 12 33 27 29 328 -7 469 -64 251 -252 416 -522 458 -106 16
-275 12 -368 -9z m327 -319 c92 -28 169 -128 183 -236 3 -27 8 -62 11 -77 l6
-28 -351 0 -351 0 6 28 c50 228 178 338 379 328 44 -2 97 -9 117 -15z"/>
<path d="M5035 2624 c-166 -35 -280 -107 -356 -225 -17 -28 -37 -48 -43 -46
-7 2 -12 47 -14 125 l-3 122 -199 0 -200 0 0 -825 0 -825 205 0 205 0 0 448
c0 541 10 628 80 734 70 105 182 154 332 146 75 -5 96 -10 135 -34 56 -35 89
-92 103 -179 6 -34 10 -291 10 -587 l0 -528 205 0 206 0 -3 628 c-3 560 -5
633 -21 685 -75 253 -242 369 -527 366 -52 -1 -104 -3 -115 -5z"/>
<path d="M9720 2624 c-228 -45 -366 -137 -438 -293 -30 -64 -36 -90 -40 -167
-8 -154 28 -256 127 -354 83 -83 173 -123 415 -182 259 -64 301 -86 324 -170
20 -74 -13 -144 -86 -180 -41 -20 -61 -23 -157 -22 -94 1 -120 5 -178 27 -86
33 -166 87 -216 144 -26 28 -47 43 -58 41 -10 -2 -69 -57 -130 -122 -129 -139
-128 -130 -27 -227 140 -132 344 -199 604 -199 195 0 319 30 433 104 180 117
259 317 213 537 -18 82 -42 130 -95 190 -86 99 -187 143 -461 205 -107 25
-214 54 -237 65 -118 57 -111 216 12 262 41 16 70 18 165 15 104 -4 122 -7
182 -35 37 -17 87 -50 111 -72 24 -23 48 -41 53 -41 8 0 115 112 202 211 l32
37 -41 41 c-62 65 -153 118 -258 152 -89 29 -109 31 -261 34 -91 2 -176 1
-190 -1z"/>
<path d="M11203 2610 c-248 -57 -407 -182 -514 -401 -110 -225 -118 -587 -19
-835 86 -216 251 -360 487 -425 97 -27 345 -37 450 -20 207 35 364 140 469
313 20 33 32 63 28 67 -36 31 -267 171 -282 171 -11 0 -31 -19 -51 -50 -73
-112 -167 -155 -341 -154 -136 0 -200 20 -274 85 -74 65 -106 135 -131 282
l-6 37 534 0 c411 0 537 3 550 12 15 11 17 34 18 178 0 287 -49 439 -185 576
-67 67 -185 131 -291 160 -97 26 -340 28 -442 4z m322 -321 c106 -32 174 -117
190 -236 3 -27 9 -60 11 -75 l6 -28 -351 0 -351 0 6 28 c49 223 164 328 360
331 37 1 89 -7 129 -20z"/>
<path d="M7562 1983 c4 -593 5 -621 25 -695 55 -196 166 -311 344 -353 84 -19
267 -20 342 0 120 31 226 109 292 215 15 25 29 46 30 48 1 1 10 0 19 -4 14 -5
16 -24 16 -125 l0 -119 200 0 200 0 0 825 0 825 -209 0 -210 0 -3 -512 c-4
-501 -4 -515 -26 -580 -51 -153 -170 -238 -333 -238 -122 0 -206 46 -246 135
-17 37 -18 86 -21 618 l-3 577 -210 0 -210 0 3 -617z"/>
</g>
</svg>
